<svg width="104" height="92" viewBox="0 0 104 92" fill="none" xmlns="http://www.w3.org/2000/svg">
<rect x="0.1536" y="0.0105532" width="107.374" height="11.7807" transform="matrix(0.811751 -0.584004 0.724252 0.689536 8.02127 83.8319)" fill="#1950DD" stroke="white" stroke-width="0.2"/>
<rect x="0.1536" y="0.0105532" width="107.374" height="11.7807" transform="matrix(0.811751 -0.584004 0.724252 0.689536 8.02127 81.8319)" fill="#1950DD" stroke="white" stroke-width="0.2"/>
<rect x="0.1536" y="0.0105532" width="107.374" height="11.7807" transform="matrix(0.811751 -0.584004 0.724252 0.689536 8.02127 79.8319)" fill="#1950DD" stroke="white" stroke-width="0.2"/>
<rect x="0.1536" y="0.0105532" width="107.374" height="11.7807" transform="matrix(0.811751 -0.584004 0.724252 0.689536 8.02127 77.8319)" fill="#1950DD" stroke="white" stroke-width="0.2"/>
<rect x="0.1536" y="0.0105532" width="107.374" height="11.7807" transform="matrix(0.811751 -0.584004 0.724252 0.689536 8.02127 75.8319)" fill="#1950DD" stroke="white" stroke-width="0.2"/>
<rect x="0.1536" y="0.0105532" width="107.374" height="11.7807" transform="matrix(0.811751 -0.584004 0.724252 0.689536 8.02127 73.8319)" fill="#1950DD" stroke="white" stroke-width="0.2"/>
<path d="M9.22058 69.9633L0.908607 62.0498L95.2794 10.2978L103.591 18.2113L9.22058 69.9633Z" fill="#1950DD" stroke="#F4F7F8" stroke-width="0.5"/>
</svg>
